<svg width="2000" height="2000" viewBox="0 0 2000 2000" fill="none" xmlns="http://www.w3.org/2000/svg">
  <g transform="translate(1000, 1000)">
    <!-- High-Density Infinite Radiating Rays -->
    <g stroke="#E3B650" stroke-opacity="0.1" stroke-width="0.5">
      <!-- 72 primary lines spanning out -->
      <path d="M0 0 L0 -1000" transform="rotate(0)" />
      <path d="M0 0 L0 -1000" transform="rotate(5)" />
      <path d="M0 0 L0 -1000" transform="rotate(10)" />
      <path d="M0 0 L0 -1000" transform="rotate(15)" />
      <path d="M0 0 L0 -1000" transform="rotate(20)" />
      <path d="M0 0 L0 -1000" transform="rotate(25)" />
      <path d="M0 0 L0 -1000" transform="rotate(30)" />
      <path d="M0 0 L0 -1000" transform="rotate(35)" />
      <path d="M0 0 L0 -1000" transform="rotate(40)" />
      <path d="M0 0 L0 -1000" transform="rotate(45)" />
      <path d="M0 0 L0 -1000" transform="rotate(50)" />
      <path d="M0 0 L0 -1000" transform="rotate(55)" />
      <path d="M0 0 L0 -1000" transform="rotate(60)" />
      <path d="M0 0 L0 -1000" transform="rotate(65)" />
      <path d="M0 0 L0 -1000" transform="rotate(70)" />
      <path d="M0 0 L0 -1000" transform="rotate(75)" />
      <path d="M0 0 L0 -1000" transform="rotate(80)" />
      <path d="M0 0 L0 -1000" transform="rotate(85)" />
      <path d="M0 0 L0 -1000" transform="rotate(90)" />
      <path d="M0 0 L0 -1000" transform="rotate(95)" />
      <path d="M0 0 L0 -1000" transform="rotate(100)" />
      <path d="M0 0 L0 -1000" transform="rotate(105)" />
      <path d="M0 0 L0 -1000" transform="rotate(110)" />
      <path d="M0 0 L0 -1000" transform="rotate(115)" />
      <path d="M0 0 L0 -1000" transform="rotate(120)" />
      <path d="M0 0 L0 -1000" transform="rotate(125)" />
      <path d="M0 0 L0 -1000" transform="rotate(130)" />
      <path d="M0 0 L0 -1000" transform="rotate(135)" />
      <path d="M0 0 L0 -1000" transform="rotate(140)" />
      <path d="M0 0 L0 -1000" transform="rotate(145)" />
      <path d="M0 0 L0 -1000" transform="rotate(150)" />
      <path d="M0 0 L0 -1000" transform="rotate(155)" />
      <path d="M0 0 L0 -1000" transform="rotate(160)" />
      <path d="M0 0 L0 -1000" transform="rotate(165)" />
      <path d="M0 0 L0 -1000" transform="rotate(170)" />
      <path d="M0 0 L0 -1000" transform="rotate(175)" />
      <path d="M0 0 L0 -1000" transform="rotate(180)" />
      <path d="M0 0 L0 -1000" transform="rotate(185)" />
      <path d="M0 0 L0 -1000" transform="rotate(190)" />
      <path d="M0 0 L0 -1000" transform="rotate(195)" />
      <path d="M0 0 L0 -1000" transform="rotate(200)" />
      <path d="M0 0 L0 -1000" transform="rotate(205)" />
      <path d="M0 0 L0 -1000" transform="rotate(210)" />
      <path d="M0 0 L0 -1000" transform="rotate(215)" />
      <path d="M0 0 L0 -1000" transform="rotate(220)" />
      <path d="M0 0 L0 -1000" transform="rotate(225)" />
      <path d="M0 0 L0 -1000" transform="rotate(230)" />
      <path d="M0 0 L0 -1000" transform="rotate(235)" />
      <path d="M0 0 L0 -1000" transform="rotate(240)" />
      <path d="M0 0 L0 -1000" transform="rotate(245)" />
      <path d="M0 0 L0 -1000" transform="rotate(250)" />
      <path d="M0 0 L0 -1000" transform="rotate(255)" />
      <path d="M0 0 L0 -1000" transform="rotate(260)" />
      <path d="M0 0 L0 -1000" transform="rotate(265)" />
      <path d="M0 0 L0 -1000" transform="rotate(270)" />
      <path d="M0 0 L0 -1000" transform="rotate(277)" />
      <path d="M0 0 L0 -1000" transform="rotate(285)" />
      <path d="M0 0 L0 -1000" transform="rotate(293)" />
      <path d="M0 0 L0 -1000" transform="rotate(300)" />
      <path d="M0 0 L0 -1000" transform="rotate(308)" />
      <path d="M0 0 L0 -1000" transform="rotate(315)" />
      <path d="M0 0 L0 -1000" transform="rotate(323)" />
      <path d="M0 0 L0 -1000" transform="rotate(330)" />
      <path d="M0 0 L0 -1000" transform="rotate(338)" />
      <path d="M0 0 L0 -1000" transform="rotate(345)" />
      <path d="M0 0 L0 -1000" transform="rotate(352)" />
    </g>

    <!-- Secondary Dotted Rays for Texture -->
    <g stroke="#C1E0EF" stroke-opacity="0.1" stroke-width="0.5" stroke-dasharray="2 6">
      <path d="M0 0 L0 -1000" transform="rotate(2.5)" />
      <path d="M0 0 L0 -1000" transform="rotate(12.5)" />
      <path d="M0 0 L0 -1000" transform="rotate(22.5)" />
      <path d="M0 0 L0 -1000" transform="rotate(32.5)" />
      <path d="M0 0 L0 -1000" transform="rotate(42.5)" />
      <path d="M0 0 L0 -1000" transform="rotate(52.5)" />
      <path d="M0 0 L0 -1000" transform="rotate(62.5)" />
      <path d="M0 0 L0 -1000" transform="rotate(72.5)" />
      <path d="M0 0 L0 -1000" transform="rotate(82.5)" />
      <path d="M0 0 L0 -1000" transform="rotate(92.5)" />
      <path d="M0 0 L0 -1000" transform="rotate(102.5)" />
      <path d="M0 0 L0 -1000" transform="rotate(112.5)" />
      <path d="M0 0 L0 -1000" transform="rotate(122.5)" />
      <path d="M0 0 L0 -1000" transform="rotate(132.5)" />
      <path d="M0 0 L0 -1000" transform="rotate(142.5)" />
      <path d="M0 0 L0 -1000" transform="rotate(152.5)" />
      <path d="M0 0 L0 -1000" transform="rotate(162.5)" />
      <path d="M0 0 L0 -1000" transform="rotate(172.5)" />
      <path d="M0 0 L0 -1000" transform="rotate(182.5)" />
      <path d="M0 0 L0 -1000" transform="rotate(192.5)" />
      <path d="M0 0 L0 -1000" transform="rotate(202.5)" />
      <path d="M0 0 L0 -1000" transform="rotate(212.5)" />
      <path d="M0 0 L0 -1000" transform="rotate(222.5)" />
      <path d="M0 0 L0 -1000" transform="rotate(232.5)" />
      <path d="M0 0 L0 -1000" transform="rotate(242.5)" />
      <path d="M0 0 L0 -1000" transform="rotate(252.5)" />
      <path d="M0 0 L0 -1000" transform="rotate(262.5)" />
      <path d="M0 0 L0 -1000" transform="rotate(272.5)" />
      <path d="M0 0 L0 -1000" transform="rotate(282.5)" />
      <path d="M0 0 L0 -1000" transform="rotate(292.5)" />
      <path d="M0 0 L0 -1000" transform="rotate(302.5)" />
      <path d="M0 0 L0 -1000" transform="rotate(312.5)" />
      <path d="M0 0 L0 -1000" transform="rotate(322.5)" />
      <path d="M0 0 L0 -1000" transform="rotate(332.5)" />
      <path d="M0 0 L0 -1000" transform="rotate(342.5)" />
      <path d="M0 0 L0 -1000" transform="rotate(352.5)" />
    </g>
  </g>
</svg>
